<svg width="122" height="170" viewBox="0 0 122 170" fill="none" xmlns="http://www.w3.org/2000/svg">
<path d="M74.7582 35.6869H73.9344V13.0827C73.9344 11.3646 73.5966 9.66342 72.9402 8.07615C72.2838 6.48889 71.3217 5.04666 70.1088 3.83182C68.896 2.61698 67.4561 1.65331 65.8714 0.995849C64.2868 0.338385 62.5883 -5.37495e-06 60.8731 0H13.0613C11.3461 -5.37495e-06 9.64766 0.338385 8.06298 0.995849C6.47831 1.65331 5.03843 2.61698 3.82558 3.83182C2.61272 5.04666 1.65062 6.48889 0.994229 8.07616C0.337836 9.66342 -2.68311e-06 11.3646 0 13.0827V137.091C-1.60986e-06 138.809 0.337839 140.51 0.994232 142.097C1.65063 143.685 2.61272 145.127 3.82558 146.342C5.03844 147.557 6.47831 148.52 8.06298 149.178C9.64766 149.835 11.3461 150.174 13.0613 150.174H60.8731C62.5883 150.174 64.2868 149.835 65.8714 149.178C67.4561 148.52 68.896 147.557 70.1088 146.342C71.3217 145.127 72.2838 143.685 72.9402 142.097C73.5966 140.51 73.9344 138.809 73.9344 137.091V51.7769H74.7582V35.6869Z" fill="#196643"/>
<path d="M61.3976 3.40356H55.1566C55.4436 4.10837 55.5532 4.87305 55.4756 5.63025C55.3981 6.38746 55.1358 7.11394 54.7119 7.7457C54.2881 8.37747 53.7156 8.89512 53.0449 9.25307C52.3742 9.61101 51.626 9.79826 50.866 9.79832H23.4753C22.7154 9.79826 21.9671 9.61101 21.2964 9.25307C20.6258 8.89512 20.0533 8.37747 19.6294 7.74571C19.2055 7.11394 18.9433 6.38746 18.8657 5.63025C18.7882 4.87305 18.8977 4.10837 19.1847 3.40356H13.3556C12.0747 3.40356 10.8063 3.65627 9.6229 4.14726C8.43949 4.63824 7.36421 5.35789 6.45846 6.26512C5.55272 7.17235 4.83424 8.24938 4.34405 9.43473C3.85386 10.6201 3.60156 11.8905 3.60156 13.1735V137C3.60156 138.283 3.85386 139.553 4.34405 140.739C4.83424 141.924 5.55271 143.001 6.45846 143.908C7.36421 144.815 8.43949 145.535 9.6229 146.026C10.8063 146.517 12.0747 146.77 13.3556 146.77H61.3976C62.6785 146.77 63.9469 146.517 65.1303 146.026C66.3138 145.535 67.389 144.815 68.2948 143.908C69.2005 143.001 69.919 141.924 70.4092 140.739C70.8994 139.553 71.1517 138.283 71.1517 137V13.1735C71.1517 11.8905 70.8994 10.6201 70.4092 9.43473C69.919 8.24938 69.2005 7.17235 68.2948 6.26512C67.389 5.35789 66.3137 4.63824 65.1303 4.14726C63.9469 3.65627 62.6785 3.40356 61.3976 3.40356Z" fill="white"/>
<path d="M23.2234 28.5762H20.3549C20.254 28.5762 20.1573 28.6163 20.086 28.6877C20.0147 28.7592 19.9746 28.8561 19.9746 28.9571V30.2182C19.9746 30.3192 20.0147 30.4161 20.086 30.4875C20.1573 30.559 20.254 30.5991 20.3549 30.5991H20.8302V32.4887H22.748V30.5991H23.2234C23.3242 30.5991 23.4209 30.559 23.4923 30.4875C23.5636 30.4161 23.6036 30.3192 23.6036 30.2182V28.9571C23.6036 28.8561 23.5636 28.7592 23.4923 28.6877C23.4209 28.6163 23.3242 28.5762 23.2234 28.5762Z" fill="#DDAB40"/>
<path d="M26.0983 40.1179C24.3415 37.5431 23.4435 34.4775 23.5327 31.3602C23.5343 31.2883 23.511 31.218 23.4667 31.1613C23.4225 31.1047 23.36 31.0651 23.2899 31.0493V30.5044H20.2605V31.0417H20.2187C20.1363 31.0418 20.0573 31.0748 19.9991 31.1332C19.9408 31.1917 19.9082 31.2709 19.9083 31.3535C19.9083 31.3611 19.9086 31.3686 19.9091 31.3762C20.1478 34.7085 19.3419 37.6969 17.4914 40.3414C17.3849 40.4933 17.3305 40.6758 17.3364 40.8614L17.6676 51.1248C17.6756 51.3538 17.7715 51.5708 17.9354 51.7305C18.0992 51.8903 18.3184 51.9805 18.5471 51.9824H25.3992C25.6305 51.9805 25.8519 51.8882 26.0163 51.7252C26.1807 51.5622 26.275 51.3414 26.2792 51.1097L26.4069 41.1447C26.4106 40.779 26.303 40.4208 26.0983 40.1179Z" fill="#DDAB40"/>
<path d="M25.0141 43.5271H19.0498C18.9616 43.5271 18.8743 43.5462 18.7941 43.5832C18.7139 43.6201 18.6426 43.674 18.5851 43.7411C18.5276 43.8082 18.4853 43.887 18.461 43.972C18.4368 44.057 18.4312 44.1463 18.4446 44.2337L19.3459 50.1017H24.5212L25.616 44.2535C25.6326 44.1649 25.6294 44.0738 25.6069 43.9865C25.5843 43.8993 25.5428 43.8181 25.4853 43.7487C25.4279 43.6794 25.3559 43.6236 25.2744 43.5853C25.193 43.547 25.1041 43.5271 25.0141 43.5271Z" fill="white"/>
<path d="M55.1569 59.3218H52.2885C52.1876 59.3218 52.0909 59.3619 52.0196 59.4333C51.9483 59.5048 51.9082 59.6017 51.9082 59.7027V60.9638C51.9082 61.0648 51.9483 61.1617 52.0196 61.2331C52.0909 61.3046 52.1876 61.3447 52.2885 61.3447H52.7638V63.2343H54.6816V61.3447H55.1569C55.2578 61.3447 55.3545 61.3046 55.4259 61.2331C55.4972 61.1617 55.5372 61.0648 55.5372 60.9638V59.7027C55.5372 59.6017 55.4972 59.5048 55.4258 59.4333C55.3545 59.3619 55.2578 59.3218 55.1569 59.3218Z" fill="#DDAB40"/>
<path d="M58.0279 70.8633C56.2712 68.2885 55.3732 65.2229 55.4624 62.1056C55.464 62.0336 55.4407 61.9634 55.3964 61.9067C55.3522 61.85 55.2897 61.8104 55.2196 61.7947V61.2498H52.1902V61.7871H52.1484C52.1076 61.7872 52.0672 61.7953 52.0295 61.811C51.9918 61.8267 51.9576 61.8496 51.9287 61.8786C51.8999 61.9075 51.8771 61.9419 51.8615 61.9797C51.8459 62.0175 51.8379 62.058 51.838 62.0989C51.838 62.1064 51.8383 62.114 51.8388 62.1215C52.0775 65.4539 51.2716 68.4423 49.4211 71.0867C49.3146 71.2387 49.2602 71.4212 49.2661 71.6068L49.5973 81.8702C49.6053 82.0991 49.7012 82.3161 49.8651 82.4759C50.0289 82.6357 50.2481 82.7259 50.4767 82.7277H57.3289C57.5602 82.7258 57.7816 82.6336 57.946 82.4706C58.1104 82.3076 58.2047 82.0867 58.2089 81.8551L58.3365 71.8901C58.3403 71.5244 58.2327 71.1661 58.0279 70.8633Z" fill="#DDAB40"/>
<path d="M56.9438 74.2725H50.9795C50.8912 74.2725 50.804 74.2916 50.7238 74.3285C50.6436 74.3655 50.5723 74.4193 50.5148 74.4864C50.4573 74.5536 50.415 74.6323 50.3907 74.7174C50.3665 74.8024 50.3609 74.8917 50.3743 74.9791L51.2756 80.847H56.4509L57.5457 74.9988C57.5622 74.9103 57.5591 74.8191 57.5365 74.7319C57.514 74.6446 57.4725 74.5635 57.415 74.4941C57.3575 74.4248 57.2855 74.3689 57.2041 74.3306C57.1226 74.2923 57.0338 74.2725 56.9438 74.2725H56.9438Z" fill="white"/>
<path d="M19.1914 102.787H17.8308C17.7829 102.787 17.7371 102.806 17.7032 102.84C17.6694 102.873 17.6504 102.919 17.6504 102.967V103.565C17.6504 103.613 17.6694 103.659 17.7032 103.693C17.7371 103.727 17.7829 103.746 17.8308 103.746H18.0563V104.642H18.9659V103.746H19.1914C19.2393 103.746 19.2851 103.727 19.319 103.693C19.3528 103.659 19.3718 103.613 19.3718 103.565V102.967C19.3718 102.919 19.3528 102.873 19.319 102.84C19.2851 102.806 19.2393 102.787 19.1914 102.787Z" fill="#DDAB40"/>
<path d="M20.5568 108.261C19.7235 107.04 19.2975 105.586 19.3398 104.107C19.3406 104.073 19.3295 104.04 19.3085 104.013C19.2875 103.986 19.2579 103.967 19.2246 103.96V103.701H17.7876V103.956H17.7678C17.7485 103.956 17.7293 103.96 17.7114 103.967C17.6935 103.975 17.6773 103.986 17.6636 103.999C17.6499 104.013 17.6391 104.029 17.6317 104.047C17.6243 104.065 17.6205 104.085 17.6206 104.104C17.6206 104.108 17.6207 104.111 17.621 104.115C17.7536 105.624 17.3472 107.131 16.4741 108.367C16.4236 108.439 16.3978 108.526 16.4006 108.614L16.5577 113.482C16.5615 113.591 16.607 113.694 16.6847 113.77C16.7624 113.845 16.8664 113.888 16.9749 113.889H20.2252C20.3349 113.888 20.4399 113.844 20.5179 113.767C20.5958 113.69 20.6406 113.585 20.6426 113.475L20.7031 108.748C20.7049 108.575 20.6539 108.405 20.5568 108.261Z" fill="#DDAB40"/>
<path d="M20.0876 110.051H16.9863V111.604H20.0876V110.051Z" fill="white"/>
<path d="M25.5274 102.787H24.1667C24.1189 102.787 24.073 102.806 24.0392 102.84C24.0053 102.873 23.9863 102.919 23.9863 102.967V103.565C23.9863 103.613 24.0053 103.659 24.0392 103.693C24.073 103.727 24.1189 103.746 24.1667 103.746H24.3922V104.642H25.3019V103.746H25.5274C25.5752 103.746 25.6211 103.727 25.6549 103.693C25.6887 103.659 25.7077 103.613 25.7077 103.565V102.967C25.7077 102.919 25.6887 102.873 25.6549 102.84C25.6211 102.806 25.5752 102.787 25.5274 102.787Z" fill="#DDAB40"/>
<path d="M26.8888 108.261C26.0555 107.04 25.6295 105.586 25.6718 104.107C25.6726 104.073 25.6615 104.04 25.6405 104.013C25.6195 103.986 25.5899 103.967 25.5567 103.96V103.701H24.1197V103.956H24.0999C24.0805 103.956 24.0613 103.96 24.0435 103.967C24.0256 103.975 24.0093 103.986 23.9957 103.999C23.982 104.013 23.9711 104.029 23.9638 104.047C23.9564 104.065 23.9526 104.085 23.9526 104.104C23.9526 104.108 23.9527 104.111 23.953 104.115C24.0856 105.624 23.6792 107.131 22.8062 108.367C22.7557 108.439 22.7299 108.526 22.7326 108.614L22.8897 113.482C22.8935 113.591 22.939 113.694 23.0168 113.77C23.0945 113.845 23.1984 113.888 23.3069 113.889H26.5572C26.6669 113.888 26.7719 113.844 26.8499 113.767C26.9279 113.69 26.9726 113.585 26.9746 113.475L27.0352 108.748C27.037 108.575 26.9859 108.405 26.8888 108.261Z" fill="#DDAB40"/>
<path d="M26.4216 110.051H23.3203V111.604H26.4216V110.051Z" fill="white"/>
<path d="M31.8613 102.787H30.5007C30.4529 102.787 30.407 102.806 30.3731 102.84C30.3393 102.873 30.3203 102.919 30.3203 102.967V103.565C30.3203 103.613 30.3393 103.659 30.3731 103.693C30.407 103.727 30.4529 103.746 30.5007 103.746H30.7262V104.642H31.6359V103.746H31.8613C31.9092 103.746 31.9551 103.727 31.9889 103.693C32.0227 103.659 32.0417 103.613 32.0417 103.565V102.967C32.0417 102.919 32.0227 102.873 31.9889 102.84C31.9551 102.806 31.9092 102.787 31.8613 102.787Z" fill="#DDAB40"/>
<path d="M33.2228 108.261C32.3895 107.04 31.9635 105.586 32.0058 104.107C32.0066 104.073 31.9955 104.04 31.9745 104.013C31.9535 103.986 31.9239 103.967 31.8907 103.96V103.701H30.4536V103.956H30.4338C30.4145 103.956 30.3953 103.96 30.3774 103.967C30.3596 103.975 30.3433 103.986 30.3296 103.999C30.316 104.013 30.3051 104.029 30.2977 104.047C30.2904 104.065 30.2866 104.085 30.2866 104.104C30.2866 104.108 30.2867 104.111 30.287 104.115C30.4196 105.624 30.0132 107.131 29.1402 108.367C29.0896 108.439 29.0638 108.526 29.0666 108.614L29.2237 113.482C29.2275 113.591 29.273 113.694 29.3507 113.77C29.4285 113.845 29.5324 113.888 29.6409 113.889H32.8912C33.0009 113.888 33.1059 113.844 33.1839 113.767C33.2619 113.69 33.3066 113.585 33.3086 113.475L33.3692 108.748C33.3709 108.575 33.3199 108.405 33.2228 108.261Z" fill="#DDAB40"/>
<path d="M32.7556 110.051H29.6543V111.604H32.7556V110.051Z" fill="white"/>
<path d="M50.1745 90.8926H47.3061C47.2561 90.8926 47.2067 90.9024 47.1605 90.9216C47.1144 90.9407 47.0725 90.9688 47.0372 91.0041C47.0019 91.0395 46.9738 91.0815 46.9547 91.1277C46.9356 91.1739 46.9258 91.2235 46.9258 91.2735V92.5346C46.9258 92.6356 46.9659 92.7325 47.0372 92.804C47.1085 92.8754 47.2052 92.9155 47.3061 92.9155H47.7814V94.8051H49.6992V92.9155H50.1745C50.2754 92.9155 50.3721 92.8754 50.4434 92.804C50.5148 92.7325 50.5548 92.6356 50.5548 92.5346V91.2735C50.5548 91.2235 50.545 91.1739 50.5259 91.1277C50.5068 91.0815 50.4787 91.0395 50.4434 91.0041C50.4081 90.9688 50.3662 90.9407 50.3201 90.9216C50.2739 90.9024 50.2245 90.8926 50.1745 90.8926Z" fill="#DDAB40"/>
<path d="M53.0455 102.434C51.2888 99.8593 50.3907 96.7937 50.48 93.6764C50.4816 93.6044 50.4583 93.5342 50.414 93.4775C50.3698 93.4208 50.3073 93.3812 50.2372 93.3655V92.8206H47.2078V93.3579H47.166C47.1252 93.358 47.0848 93.3661 47.0471 93.3818C47.0094 93.3975 46.9751 93.4204 46.9463 93.4494C46.9175 93.4783 46.8946 93.5127 46.8791 93.5505C46.8635 93.5883 46.8555 93.6288 46.8556 93.6697C46.8556 93.6772 46.8559 93.6848 46.8564 93.6923C47.0951 97.0247 46.2892 100.013 44.4387 102.658C44.3322 102.81 44.2778 102.992 44.2836 103.178L44.6149 113.441C44.6228 113.67 44.7188 113.887 44.8826 114.047C45.0465 114.206 45.2656 114.297 45.4943 114.299H52.3465C52.5778 114.297 52.7992 114.204 52.9636 114.041C53.1279 113.878 53.2223 113.658 53.2265 113.426L53.3541 103.461C53.3579 103.095 53.2502 102.737 53.0455 102.434Z" fill="#DDAB40"/>
<path d="M51.9594 105.843H45.9952C45.9069 105.843 45.8196 105.862 45.7394 105.899C45.6592 105.936 45.5879 105.99 45.5304 106.057C45.4729 106.124 45.4306 106.203 45.4064 106.288C45.3821 106.373 45.3765 106.462 45.3899 106.55L46.2912 112.418H51.4665L52.5613 106.57C52.5779 106.481 52.5748 106.39 52.5522 106.303C52.5296 106.215 52.4881 106.134 52.4306 106.065C52.3732 105.996 52.3012 105.94 52.2197 105.901C52.1383 105.863 52.0494 105.843 51.9594 105.843Z" fill="white"/>
<path d="M51.7393 53.3035H34.6406C35.8361 46.8297 35.561 39.0124 34.6406 30.6055H51.7393C50.8434 39.0124 50.5757 46.8297 51.7393 53.3035Z" fill="#DDAB40"/>
<path d="M43.2901 45.4623C45.5656 45.4623 47.4103 43.6146 47.4103 41.3354C47.4103 39.0562 45.5656 37.2085 43.2901 37.2085C41.0146 37.2085 39.1699 39.0562 39.1699 41.3354C39.1699 43.6146 41.0146 45.4623 43.2901 45.4623Z" fill="white"/>
<path d="M36.0811 83.4299H18.9824C20.1779 76.9562 19.9028 69.1389 18.9824 60.7319H36.0811C35.1852 69.1389 34.9175 76.9562 36.0811 83.4299Z" fill="#DDAB40"/>
<path d="M27.6377 75.5888C29.9132 75.5888 31.7579 73.7411 31.7579 71.4619C31.7579 69.1826 29.9132 67.335 27.6377 67.335C25.3622 67.335 23.5176 69.1826 23.5176 71.4619C23.5176 73.7411 25.3622 75.5888 27.6377 75.5888Z" fill="white"/>
<path d="M61.4229 54.748H44.3242C45.5197 48.2743 45.2446 40.457 44.3242 32.05H61.4229C60.527 40.457 60.2593 48.2743 61.4229 54.748Z" fill="#E6E6E6"/>
<path d="M52.9756 46.9069C55.2511 46.9069 57.0958 45.0592 57.0958 42.78C57.0958 40.5008 55.2511 38.6531 52.9756 38.6531C50.7001 38.6531 48.8555 40.5008 48.8555 42.78C48.8555 45.0592 50.7001 46.9069 52.9756 46.9069Z" fill="white"/>
<path d="M61.4229 53.7163H44.3242C45.5197 47.2425 45.2446 39.4253 44.3242 31.0183H61.4229C60.527 39.4253 60.2593 47.2425 61.4229 53.7163Z" fill="#DDAB40"/>
<path d="M52.9756 45.8751C55.2511 45.8751 57.0958 44.0275 57.0958 41.7482C57.0958 39.469 55.2511 37.6213 52.9756 37.6213C50.7001 37.6213 48.8555 39.469 48.8555 41.7482C48.8555 44.0275 50.7001 45.8751 52.9756 45.8751Z" fill="white"/>
<path d="M61.4229 54.748H44.3242C45.5197 48.2743 45.2446 40.457 44.3242 32.05H61.4229C60.527 40.457 60.2593 48.2743 61.4229 54.748Z" fill="#DDAB40"/>
<path d="M52.9756 46.9069C55.2511 46.9069 57.0958 45.0592 57.0958 42.78C57.0958 40.5008 55.2511 38.6531 52.9756 38.6531C50.7001 38.6531 48.8555 40.5008 48.8555 42.78C48.8555 45.0592 50.7001 46.9069 52.9756 46.9069Z" fill="white"/>
<path d="M65.335 52.0654H9.30078V58.2558H65.335V52.0654Z" fill="#DDAB40"/>
<path d="M65.335 82.811H9.30078V89.0014H65.335V82.811Z" fill="#DDAB40"/>
<path d="M65.335 113.556H9.30078V119.747H65.335V113.556Z" fill="#DDAB40"/>
<path d="M103.378 158.566L89.418 148.676C94.1261 144.083 98.4083 137.541 102.504 130.145L116.463 140.035C110.885 146.381 106.16 152.608 103.378 158.566Z" fill="#DDAB40"/>
<path d="M103.384 148.037C105.659 148.037 107.504 146.189 107.504 143.91C107.504 141.631 105.659 139.783 103.384 139.783C101.108 139.783 99.2637 141.631 99.2637 143.91C99.2637 146.189 101.108 148.037 103.384 148.037Z" fill="white"/>
<path d="M84.528 134.856H81.6596C81.5587 134.856 81.462 134.896 81.3907 134.968C81.3194 135.039 81.2793 135.136 81.2793 135.237V136.498C81.2793 136.599 81.3194 136.696 81.3907 136.768C81.462 136.839 81.5587 136.879 81.6596 136.879H82.1349V138.769H84.0527V136.879H84.528C84.6289 136.879 84.7256 136.839 84.7969 136.768C84.8683 136.696 84.9083 136.599 84.9083 136.498V135.237C84.9083 135.136 84.8683 135.039 84.7969 134.968C84.7256 134.896 84.6289 134.856 84.528 134.856Z" fill="#DDAB40"/>
<path d="M87.401 146.398C85.6443 143.823 84.7462 140.758 84.8354 137.64C84.837 137.568 84.8137 137.498 84.7695 137.441C84.7252 137.385 84.6627 137.345 84.5927 137.329V136.784H81.5632V137.322H81.5215C81.4807 137.322 81.4402 137.33 81.4025 137.346C81.3649 137.361 81.3306 137.384 81.3018 137.413C81.273 137.442 81.2501 137.477 81.2345 137.514C81.219 137.552 81.211 137.593 81.211 137.634C81.211 137.641 81.2113 137.649 81.2119 137.656C81.4505 140.989 80.6446 143.977 78.7941 146.621C78.6876 146.773 78.6333 146.956 78.6391 147.141L78.9704 157.405C78.9783 157.634 79.0742 157.851 79.2381 158.011C79.402 158.17 79.6211 158.261 79.8498 158.262H86.702C86.9333 158.26 87.1547 158.168 87.319 158.005C87.4834 157.842 87.5777 157.621 87.5819 157.39L87.7096 147.425C87.7134 147.059 87.6057 146.701 87.401 146.398Z" fill="#DDAB40"/>
<path opacity="0.2" d="M83.932 135.267C83.932 135.485 83.8455 135.694 83.6917 135.848C83.5378 136.002 83.3291 136.089 83.1115 136.089C82.8939 136.089 82.6852 136.002 82.5313 135.848C82.3775 135.694 82.291 135.485 82.291 135.267" fill="black"/>
<path d="M86.3169 149.807H80.3526C80.2643 149.807 80.177 149.826 80.0968 149.863C80.0166 149.9 79.9453 149.954 79.8878 150.021C79.8303 150.088 79.788 150.167 79.7638 150.252C79.7395 150.337 79.7339 150.426 79.7474 150.514L80.6486 156.382H85.824L86.9187 150.534C86.9353 150.445 86.9322 150.354 86.9096 150.267C86.887 150.179 86.8455 150.098 86.7881 150.029C86.7306 149.959 86.6586 149.904 86.5771 149.865C86.4957 149.827 86.4068 149.807 86.3169 149.807Z" fill="white"/>
<path d="M76.3448 158.55H59.2461C60.4415 152.077 60.1665 144.259 59.2461 135.852H76.3448C75.4489 144.259 75.1811 152.077 76.3448 158.55Z" fill="#DDAB40"/>
<path d="M67.8995 150.709C70.175 150.709 72.0196 148.861 72.0196 146.582C72.0196 144.303 70.175 142.455 67.8995 142.455C65.624 142.455 63.7793 144.303 63.7793 146.582C63.7793 148.861 65.624 150.709 67.8995 150.709Z" fill="white"/>
<path d="M111.734 160.049H57.4121L45.9089 105.582H36.0918V103.138H47.8867L59.3899 157.605H111.734V160.049Z" fill="#6B6455"/>
<path d="M65.3732 170C68.261 170 70.602 167.655 70.602 164.763C70.602 161.87 68.261 159.525 65.3732 159.525C62.4855 159.525 60.1445 161.87 60.1445 164.763C60.1445 167.655 62.4855 170 65.3732 170Z" fill="#6B6455"/>
<path d="M104.412 170C107.3 170 109.641 167.655 109.641 164.763C109.641 161.87 107.3 159.525 104.412 159.525C101.525 159.525 99.1836 161.87 99.1836 164.763C99.1836 167.655 101.525 170 104.412 170Z" fill="#6B6455"/>
<path d="M110.744 158.898H57.8916L48.5664 112.739H119.495C119.857 112.739 120.214 112.818 120.543 112.97C120.872 113.121 121.164 113.342 121.399 113.618C121.634 113.893 121.807 114.217 121.906 114.566C122.004 114.914 122.026 115.28 121.97 115.639L113.219 156.778C113.128 157.37 112.829 157.91 112.374 158.299C111.92 158.688 111.341 158.901 110.744 158.898ZM58.4656 158.2H110.744C111.175 158.202 111.593 158.048 111.921 157.767C112.248 157.487 112.465 157.097 112.53 156.67L121.281 115.53C121.322 115.272 121.306 115.007 121.235 114.756C121.164 114.504 121.039 114.27 120.869 114.072C120.699 113.873 120.489 113.713 120.251 113.604C120.014 113.494 119.756 113.438 119.495 113.438H49.4127L58.4656 158.2Z" fill="#6B6455"/>
<path d="M68.1675 158.751L62.0605 113.145L62.7483 113.031L68.8553 158.637L68.1675 158.751Z" fill="#6B6455"/>
<path d="M102.124 158.4L101.436 158.289L107.364 113.032L108.053 113.144L102.124 158.4Z" fill="#6B6455"/>
<path d="M85.9452 113.088H85.248V158.694H85.9452V113.088Z" fill="#6B6455"/>
<path d="M52.1286 125.309L52.127 126.007L119.611 126.171L119.613 125.472L52.1286 125.309Z" fill="#6B6455"/>
<path d="M114.851 146.88L55.5645 147.286L55.5692 147.984L114.856 147.578L114.851 146.88Z" fill="#6B6455"/>
<path d="M37.1371 106.105C39.2548 106.105 40.9715 105.167 40.9715 104.01C40.9715 102.853 39.2548 101.916 37.1371 101.916C35.0195 101.916 33.3027 102.853 33.3027 104.01C33.3027 105.167 35.0195 106.105 37.1371 106.105Z" fill="#6B6455"/>
</svg>
